<svg xmlns="http://www.w3.org/2000/svg" width="14" height="16" viewBox="0 0 14 16">
  <text stroke="none" fill="#438FDC" x="4.2" y="10.2" font-family="Verdana" font-size="5">
    V
  </text>

  <path id="progress" stroke="none" fill="orange" fill-rule="evenodd" d="M10.24 7.4a4.15 4.15 0 0 1-1.2 3.6 4.346 4.346 0 0 1-5.41.54L4.8 10.4.5 9.8l.6 4.2 1.31-1.26c2.36 1.74 5.7 1.57 7.84-.54a5.876 5.876 0 0 0 1.74-4.46l-1.75-.34zM2.96 5a4.346 4.346 0 0 1 5.41-.54L7.2 5.6l4.3.6-.6-4.2-1.31 1.26c-2.36-1.74-5.7-1.57-7.85.54C.5 5.03-.06 6.65.01 8.26l1.75.35A4.17 4.17 0 0 1 2.96 5z"/>

  <animateTransform 
    href="#progress"
    attributeName="transform"
    attributeType="XML"
    type="rotate"
    from="0 6.1 8.05"
    to="360 6.1 8.05"
    dur="1.8s"
    repeatCount="indefinite"
  />
</svg>